<?xml version="1.0" encoding="utf-8"?>
<!-- Generator: Adobe Illustrator 13.0.0, SVG Export Plug-In . SVG Version: 6.00 Build 14948)  -->
<!DOCTYPE svg PUBLIC "-//W3C//DTD SVG 1.1//EN" "http://www.w3.org/Graphics/SVG/1.1/DTD/svg11.dtd">
<svg version="1.1" id="Layer_1" xmlns="http://www.w3.org/2000/svg" xmlns:xlink="http://www.w3.org/1999/xlink" x="0px" y="0px"
	 width="1095.907px" height="1101.862px" viewBox="0 0 1095.907 1101.862" enable-background="new 0 0 1095.907 1101.862"
	 xml:space="preserve">
<g>
	<g>
		<path fill-rule="evenodd" clip-rule="evenodd" fill="#FFFFFF" d="M1.044,0c364.962,0,729.897,0,1094.863,0
			c0,367.279,0,734.586,0,1101.862c-365.295,0-730.567,0-1095.863,0c0-366.292,0-732.562,0-1098.863
			C-0.042,1.581-0.121,0.168,1.044,0z M418.992,55.993c-99.115,27.725-180.463,80.73-238.97,144.981
			C102.35,286.272,36.166,407.987,45.038,574.928c8.327,156.662,73.458,266.714,161.98,348.957
			c84.089,78.124,208.834,143.798,372.954,135.982c157.496-7.5,267.637-73.904,349.956-160.979
			c40.861-43.222,73.905-95.197,98.987-155.98c25.176-61.009,42.05-132.845,37.995-217.973
			c-7.371-154.794-77.562-269.788-161.979-348.957C820.938,97.208,695.828,31.145,530.978,38.995
			C494.259,40.744,452.871,46.516,418.992,55.993z"/>
		<path fill-rule="evenodd" clip-rule="evenodd" d="M495.982,288.964c-2.482,11.849-6.476,22.188-12.999,29.996
			c-4.861-2.804-9.311-6.021-7.999-14.998C483.642,300.621,481.146,286.126,495.982,288.964z"/>
		<path fill-rule="evenodd" clip-rule="evenodd" d="M509.98,408.949c-4.83,2.011,3.641,3.085,1,8.998
			c-4.842,0.844-3.172-4.826-8.999-2.999c1.028-6.991,2.133-7.494,0-13.998c-3.805,1.195-10.533,3.67-14.999,1
			c-1.235-3.235,3.235-0.765,2-4c-2.315,1.019-4.655,2.012-5,4.999c-0.876,3.21,2.593,2.073,3,4c0.364,4.362-1.816,6.183-4,7.999
			c-5.114-2.218-6.676-7.988-7.999-13.998c0.607-1.727,4.743,0.076,5-2c1.027-3.359-3.11-1.557-5-2
			c-0.745-3.077,2.745-1.921,2-4.999c0.168-2.168-3.546-0.453-5-1c-0.442-6.557-4.824-9.174-3-17.998
			c2.465,0.132,4.817,0.151,5.999-1c0-5.666,0-11.332,0-16.997c3.651-0.682,4.513-4.153,7-6c6.282-0.616,6.291,5.041,13.998,3
			c0,6.999,0,13.998,0,20.997c-2.962,1.371-5.108,3.558-8.999,4c0,2,0,3.999,0,5.999c0.356,2.644,5.095,0.904,6,3
			c0.542,3.874-5.801,0.864-6,3.999c-0.674,6.298,9.086,4.268,9.999,1c2.666,2.333,6.886,3.112,10.999,3.999
			c-1.319,7.319,3.313,8.687,4,13.999c3.666,0,7.333,0,10.999,0c-0.181,2.181,0.818,3.181,3,2.999c0,4,0,7.999,0,11.999
			c-1.667,0-3.333,0-4.999,0c-0.743,4.076,3.223,3.442,2,7.999c-1.182,1.151-3.534,1.132-5.999,1c0.446-6.135-6.521-10.87-1-15.998
			C515.58,412.681,510.649,412.946,509.98,408.949z"/>
		<path fill-rule="evenodd" clip-rule="evenodd" d="M507.98,434.945c3.149,0.483,2.264-3.068,5.999-1.999
			c0.558,2.441,3.869,2.13,3,5.999c-10.861-2.528-12.225,4.439-18.998,5.999c-2.506-1.493-5.467-2.531-4.999-6.999
			c0.288-3.712,5.29-2.709,4.999-6.999c-1.711-2.288-7.632-0.367-10.999-1c0.466-4.534,4.727-5.272,3-11.999
			c12.14-3.141,10.423,7.575,15.998,10.999c3.149,0.483,0.749-4.584,3-4.999C513.978,425.347,510.847,433.033,507.98,434.945z"/>
		<path fill-rule="evenodd" clip-rule="evenodd" d="M522.979,435.945c3.103-0.104,2.854,3.146,6.999,2
			c-0.943,5.276,3.049,5.617,5,7.999c0.166,5.833-1.256,13.254,2.999,14.998c-3.341,3.324-2.444,10.887-8.999,10.999
			c-0.547-1.453,1.168-5.168-1-5c-4.354,0.979-0.893,9.773-2,13.998c-8.988-0.344-13.161-5.503-17.998-9.998
			c-0.792-3.458,1.111-4.222,2-6c-0.441-2.891-2.108-4.558-4.999-4.999c-2.892,1.689-6.87,5.118-9.999,1
			c-3.149-0.483-0.749,4.584-3,4.999c-8.091-8.347,7.885-16.117,15.998-17.997c0,1.666,0,3.333,0,4.999
			c3.745-0.254,5.589-2.41,8.999-3c0-1.666,0-3.332,0-4.999c2.465,0.132,4.817,0.151,5.999-1
			C522.979,441.278,522.979,438.611,522.979,435.945z"/>
		<path fill-rule="evenodd" clip-rule="evenodd" d="M140.026,447.944c7.675,3.842,16.73,39.515-4,35.995
			C134.374,468.955,138.975,460.225,140.026,447.944z"/>
		<path fill-rule="evenodd" clip-rule="evenodd" d="M441.989,462.942c-1.533,7.865,3.404,9.261,4,14.998
			c8.51-1.512,10.226,3.772,13.998,6.999c-0.575,5.091-7.695,3.637-5.999,10.999c-2.667,0-5.333,0-7.999,0
			c-1.89,2.442-0.036,8.63-3,9.998c2.108,4.558,6.99,6.342,4.999,14.998c3.333,3.334,10.841,2.491,8.999,10.999
			c-4.145,0.854-12.297-2.299-11.999,3c2.199,4.8,11.093,2.905,8.999,11.998c-5.71,0.377-4.479-6.187-9.999-5.999
			c-3.315,0.351-1.569,5.763-2,8.999c-5.824-1.491-5.469,3.196-8.999,3.999c1.947,12.612-5.024,16.307-3,28.996
			c-6.341-5.105-10.366-1.132-17.998,0c-1.019-14.077-18.929-10.849-26.997-5.999c0.132-2.465,0.152-4.817-1-5.999
			c-4.666,0-9.333,0-13.999,0c0.241-6.573-5.013-7.652-3-15.998c-0.112-2.555-3.348-1.984-5.999-2
			c-1.093-9.906-7.478-14.52-6-26.996c3.651-0.682,4.513-4.153,6.999-6c6.3-1.3,5.047,4.952,11.999,3
			c3.994-6.671,13.278-8.053,16.998-14.998c13.382-3.181,12.421-20.526,28.996-20.997c1.151-1.182,1.132-3.535,1-6
			c1.667,0,3.333,0,5,0c-0.233-7.565,7.823-6.842,6.999-14.998C438.816,467.769,437.146,462.1,441.989,462.942z"/>
		<path fill-rule="evenodd" clip-rule="evenodd" d="M238.014,483.939c1.333,0,2.667,0,4,0c2.518,3.148,7.858,3.475,13.998,3
			c6.308,5.691,6.618,17.379,17.998,17.997c1.654,12.011,13.406,13.924,22.997,17.998c2.171,7.495,10.823,8.509,12.999,15.998
			c1.388,5.387-3.809,4.19-3,8.999c10.157,1.176,7.705,14.959,16.998,16.998c1.069-3.735-2.483-2.851-2-6
			c2.835-1.164,3.814-4.185,8.999-2.999c-3.223,10.994,9.338,10.049,6,17.998c-3.078,0.744-1.922-2.745-5-2
			c-8.446,9.109,1.924,19.395-4,28.996c-4.332-1.667-7.726-4.272-14.998-3c-2.823-9.842-17.479-7.851-17.998-19.997
			c-1.182-1.151-3.534-1.132-5.999-1c-0.322-6.01-3.134-9.53-5.999-12.998c0.463-7.463-2.965-11.034-6-14.998
			c-0.504-21.493-20.067-23.928-23.997-41.995C245.312,501.972,238.445,496.174,238.014,483.939z"/>
		<path fill-rule="evenodd" clip-rule="evenodd" fill="#FFFFFF" d="M478.984,534.934c7.333,0,14.665,0,21.998,0
			c-1.401,5.264-3.043,10.288-7.999,11.998C490.402,540.847,483.817,538.766,478.984,534.934z"/>
		<path fill-rule="evenodd" clip-rule="evenodd" fill="#FFFFFF" d="M486.983,544.932c-2.413,3.506-14.047,2.271-17.998,1
			c0-1.333,0-2.666,0-3.999C473.311,540.898,486.967,538.401,486.983,544.932z"/>
		<path fill-rule="evenodd" clip-rule="evenodd" d="M570.973,546.932c1,0,1.999,0,2.999,0c-2.258,9.258,5.055,8.944,6,14.998
			c-3,0-6,0-8.999,0C571.88,555.786,568.591,551.602,570.973,546.932z"/>
		<path fill-rule="evenodd" clip-rule="evenodd" d="M603.968,562.93c-2.193-0.109-8.068,3.625-14.998,2
			c-1.426-4.426,3.384-2.616,3-6c-2.46-6.205-17.341,0.01-14.998-10.998c8.162,0.1,21.805-1.652,35.996-1
			c3.853,2.146,1.217,10.781,5.999,11.998c0.745,3.078-2.745,1.922-2,5c-0.169,2.168,3.546,0.453,4.999,1c0,2.333,0,4.666,0,6.999
			c0.141,2.859,4.171,1.828,7,2c6.537-8.461,17.187-12.81,23.996-20.998c8.484,5.515,14.788,13.209,29.996,11.999
			c8.233,4.432,15.955,9.375,28.997,8.999c4.774,7.224,13.637,10.359,20.997,14.998c0,2.666,0,5.332,0,7.999
			c7.812,2.521,18.209,2.455,17.998,12.998c-2.651,0.015-5.888-0.555-5.999,2c-0.844,4.842,4.826,3.173,2.999,8.999
			c1.182,1.15,3.534,1.131,6,0.999c-1.759,6.425,4.579,4.753,2.999,10.999c8.761,3.571,16.055,8.608,17.998,18.998
			c-6.35,1.017-7.862-2.804-9.999-6c-5.666,0-11.332,0-16.998,0c-3.682-6.983-10.157-11.173-11.998-19.997
			c-7.919-2.614-16.207-8.446-23.997-3c1.579,6.246-4.758,4.574-3,10.999c-6.843,2.155-13.923,4.075-23.997,2.999
			c-6.176-12.605-17.242-11.927-32.996-8.998c-1.545-8.879,2.588-12.078,9-12.999c-2.315-19.682-17.131-26.863-36.996-28.996
			c-6.669-5.609-13.773-6.892-22.997-3c1.014-8.013-1.997-12.001-8.999-11.998C593.534,565.827,603.179,568.806,603.968,562.93z"/>
		<path fill-rule="evenodd" clip-rule="evenodd" d="M561.974,558.93c0.01,4.048-5.521,7.759-8.999,5
			C555.025,561.313,558.2,559.822,561.974,558.93z"/>
		<path fill-rule="evenodd" clip-rule="evenodd" d="M579.972,579.928c-6.52-5.337-12.588-2.642-18.998-5
			c-4.971,0.361-3.708,6.957-10.998,5c-0.126-3.643,4.182-4.77,0-6.999C555.452,562.476,583.879,568.582,579.972,579.928z"/>
		<path fill-rule="evenodd" clip-rule="evenodd" d="M543.976,574.928c-0.716,4.95-5.852,5.479-11.998,5
			C529.748,570.529,541.439,568.359,543.976,574.928z"/>
		<path fill-rule="evenodd" clip-rule="evenodd" d="M371.998,611.924c2.168,0.168,0.453-3.547,1-5
			c9.237-0.238,14.625,3.373,20.997,6c3.025-2.975,8.409-3.59,14.998-3c0.544,6.544-7.025,4.973-10.999,6.999
			c0.979,4.354,9.773,0.893,13.999,2c1.444,4.555,5.273,6.725,11.998,5.999c0.132,2.465,0.152,4.817-1,5.999
			c-6.225,0.559-8.4-6.109-11.999,0c-4.835-5.164-17.724-2.273-26.997-2.999c-6.122-2.877-11.738-6.261-20.998-6
			c-3.212,0.88-1.37-3.296-4-2.999c-10.992,6.153-25.404-4.379-33.996-9.999c4.605-10.904,9.212-4.665,21.997-4.999
			C352.124,609.8,363.759,609.164,371.998,611.924z"/>
		<path fill-rule="evenodd" clip-rule="evenodd" d="M537.977,619.923c0.774,3.508-8.246,2.329-8.999,1
			C528.203,617.415,537.224,618.593,537.977,619.923z"/>
		<path fill-rule="evenodd" clip-rule="evenodd" d="M459.986,630.921c-11.747,3.807-22.51,1.498-32.996,3
			c-0.155-5.487,1.646-9.019,6.999-8.999C439.494,633.582,457.355,616.415,459.986,630.921z"/>
		<path fill-rule="evenodd" clip-rule="evenodd" d="M486.983,627.922c0,1.999,0,3.999,0,5.999c-10.198,2.199-11.923-4.075-20.997-3
			C468.117,619.311,478.632,628.68,486.983,627.922z"/>
		<path fill-rule="evenodd" clip-rule="evenodd" d="M519.979,625.922c0.774,3.508-8.246,2.329-8.999,1
			C510.206,623.414,519.226,624.592,519.979,625.922z"/>
		<path fill-rule="evenodd" clip-rule="evenodd" d="M541.976,628.921c-8.159,5.839-20.756,7.241-24.996,16.998
			c-6.726-1.727-7.465,2.534-11.999,3c-2.926-16.258,15.261-11.402,18.998-20.997C532.899,631.569,540.395,620.275,541.976,628.921z
			"/>
		<path fill-rule="evenodd" clip-rule="evenodd" d="M771.947,633.921c5.703,0.963,7.761,5.571,9.999,9.999
			c-1.086,0.247-0.678,1.988-2,1.999c-3.556-2.11-4.141-7.19-8.999-7.999C770.82,636.127,772.172,635.812,771.947,633.921z"/>
		<path fill-rule="evenodd" clip-rule="evenodd" d="M459.986,636.92c4,0,7.999,0,11.999,0c0.172,4.828,6.657,3.342,6,8.999
			c-8.993,1.993-9.239-4.76-17.998-2.999C459.986,640.92,459.986,638.92,459.986,636.92z"/>
		<path fill-rule="evenodd" clip-rule="evenodd" d="M630.965,864.892c3.314-0.352,4.338-2.994,5.999-4.999
			c-8.14,0.627-12.945,12.976-23.996,13.998c2.157-12.489-9.646-11.018-9.999-20.997c-9.839,0.507-16.14-2.525-21.997-5.999
			c-4.869-1.203-2.71,4.622-8,2.999c-5.317-6.119-15.956-0.188-20.996,3c-19.305-1.64-30.887,4.442-37.996,14.998
			c-4.333,0-8.666,0-12.998,0c-8.715-7.681-20.676,1.875-26.997,5.999c-12.877,0.879-23.766-0.231-28.997-6.999
			c5.037-9.165,2.726-22.34-5.999-25.997c-1.025-17.972-13.874-24.121-17.998-38.995c1.667,0,3.333,0,5,0
			c-1.317-8.681-7.62-12.378-10.999-18.997c6.403-3.951-0.086-18.957,4-22.997c4.208-1.542,0.159,5.174,3,4.999
			c6.121-6.544,13.417-11.912,20.998-16.998c3.458-0.791,4.221,1.111,5.999,2c4.96-3.372,13.02-3.645,16.998-7.999
			c13.37,6.226,19.92-9.489,26.997-15.998c0-3.666,0-7.332,0-10.999c4.828-0.171,3.341-6.656,8.999-5.999
			c-0.576,4.909,1.296,7.369,4.999,7.999c2.288-1.711,0.367-7.632,1-10.998c2.667,0,5.333,0,7.999,0c1.069-3.735-2.483-2.851-2-6
			c8.45-6.882,15.699-14.964,27.996-17.997c5.083,2.583,7.39,7.942,11.999,10.998c5.301-4.481,5.196,2.703,12.999,1
			c-4.032-6.492,0.549-8.093,1-14.998c2.465,0.132,4.816,0.151,5.998-1c0-2.666,0-5.332,0-7.999
			c6.241-3.758,19.359-0.639,22.998-6.999c0.472-4.805-6.109-2.557-5-7.999c15.54,4.313,30.873,14.135,44.994,8.999
			c0.355,2.979,4.115,2.551,3,6.999c-6.828,4.837-8.462,14.869-13.998,20.997c5.993,9.672,20.68,10.649,26.996,19.998
			c2.667,0,5.333,0,8,0c-1.7,7.698,6.342,5.656,8.998,8.999c3.664-0.003,2.653-4.68,7.999-3c4.368-9.297,9.044-18.286,6.999-33.996
			c2.877-6.122,6.26-11.737,6-20.997c2.051-2.615,4.013-5.318,2.999-10.998c2,0,4,0,5.999,0c1.692,10.64,6.846,17.817,6,30.996
			c1.863,5.802,11.148,4.182,14.998,7.999c-3.264,18.595,8.846,21.816,5.999,39.994c5.946,5.719,13.465,9.866,20.997,13.999
			c-2.047,8.38,4.528,8.137,3,15.998c2.229,2.438,6.497,2.835,8.999,4.999c0.566,12.432,9.138,16.859,14.998,23.997
			c-1.293,10.705-4.521,19.476-3,32.996c-6.926,4.072-9.587,12.41-11.998,20.997c-3.435,1.565-6.689,3.31-5.999,8.999
			c-7.328,0.671-11.328,4.67-11.999,11.998c-4.813,4.186-11.525,6.473-11.998,14.998c-3.607-0.274-2.712,3.954-6,4
			c0,2.666,0,5.332,0,7.999c-6.675,4.323-21.985,0.012-23.997,8.999c-4.999,0-9.998,0-14.998,0c0-1.667,0-3.333,0-5
			c-4.582-0.583-4.661,3.338-6.999,5c-12.908,2.242-17.394-3.937-28.996-3c0.181-2.181-0.818-3.181-2.999-3
			c-0.001-3.333,0-6.665,0-9.998c-2.504-2.163-3.271-6.062-9-5c-1.291-4.957,2.42-4.912,2-8.998
			c-6.395-0.729-5.344,5.987-10.998,5.999C628.188,872.113,632.604,871.529,630.965,864.892z"/>
		<path fill-rule="evenodd" clip-rule="evenodd" d="M876.935,861.893c1,0,2,0,2.999,0c0.677,4.79,2.182,10.045-1.999,12.998
			c0.975,2.691,2.204,5.128,2.999,7.999c4.677,1.011,3.322-4.011,7.999-3c-3.019,5.647-6.159,11.173-13.998,11.999
			c-2.036,10.296-11.636,13.028-18.998,17.998c-0.653-5.32,4.584-4.749,6-7.999c1.28-3.948-2.914-2.42-3-5
			C867.487,887.811,878.461,877.972,876.935,861.893z"/>
		<path fill-rule="evenodd" clip-rule="evenodd" d="M630.965,880.89c0.774,3.508-8.245,2.33-8.999,1
			C621.191,878.382,630.212,879.561,630.965,880.89z"/>
		<path fill-rule="evenodd" clip-rule="evenodd" d="M852.938,906.887c-3.121,10.877-16.8,11.197-20.997,20.997
			c-7.483-0.483-12.479,1.52-11.999,8.999c-10.117,2.094-16.731,14.317-26.997,4.999c6.541-4.457,12.159-9.838,18.998-13.998
			C831.801,927.079,832.472,907.086,852.938,906.887z"/>
		<path fill-rule="evenodd" clip-rule="evenodd" d="M675.96,915.886c6.123-1.124,8.896,1.101,11.998,2.999
			c3.101-1.898,5.876-4.123,11.998-2.999c2.442,14.093-16.211,22.783-23.996,13.998C680.133,925.831,674.345,923.045,675.96,915.886
			z"/>
		<path fill-rule="evenodd" clip-rule="evenodd" fill="#FFFFFF" d="M679.959,72.991c3.333,0,6.666,0,9.999,0
			c0.559,2.774,3.44,3.225,3.999,6c4.869,1.203,2.71-4.623,7.999-3c-1.601,4.066-0.847,10.485-7.999,8.999
			c-1.48,19.592,25.251,20.131,20.997,35.996c4.868-0.132,4.926-5.074,8.999-6c-2.66-11.326,8.479-8.853,6-19.997
			c-3.656-6.343-15.906-4.091-16.998-12.999c7.266,2.029,6.216,2.899,12.998,0c3.726-1.059,3.228,2.105,4.999,3
			c20.043-0.407,51.773,19.55,68.992,28.997c98.655,54.127,171.19,134.203,215.973,239.97
			c29.364,69.352,44.509,150.155,37.995,246.969c-4.222,62.754-25.951,122.868-50.993,172.979
			c-48.621,97.292-124.843,173.932-222.973,222.972c-77.235,38.599-166.099,58.313-274.965,50.994
			c-62.264-4.186-123.693-26.363-172.979-50.994c-96.305-48.128-174.361-125.702-222.972-222.972
			c-32.643-65.319-57.421-144.799-52.993-239.97c4.069-87.465,24.078-153.074,56.993-214.974c5.513,1.18,6.942-1.723,10.999-2
			c0.601,6.064-1.613,14.945,2,17.998c-2.982,4.35-6.736,7.93-5,16.998c4.958,1.291,4.913-2.42,8.999-2
			c-1.692,8.974-7.305,14.026-6,25.997c0.877,3.21-2.593,2.073-3,3.999c1.507,28.155-3.318,62.645,3,85.989
			c10.588-3.743,9.314-19.349,17.998-24.996c0.483-17.849,12.428-24.234,8.999-45.995c3.115-3.551,10.081-3.25,9.999-9.998
			c5.346,1.68,4.335-2.997,7.999-3c4.131-14.199,18.117-18.545,24.997-29.996c7.043,1.377,5.942-5.391,10.999-5.999
			c0-2.667,0-5.333,0-7.999c2.075-0.591,3.408-1.924,3.999-4c13.736,1.405,20.688-3.976,28.997-7.999
			c-0.038,9.37-0.788,19.453,7.999,19.998c0.989,3.988-2.988,3.011-2,6.999c6.981,7.547,0.934,22.017,0,30.996
			c11.306,3.963,14.903-8.42,23.997-9.999c-3.838,18.437,8.495,34.675,0,47.994c5.907,8.99-5.162,22.248-3,36.995
			c0.42,2.246,5.306,0.027,6,2c1.152,6.847,3.849,12.148,8.999,14.998c-2.007,8.327,3.333,17.759,0,20.997
			c0.551,3.449,3.632,4.368,6,6c-0.107,17.771,19.527,15.802,23.997,28.996c2.713-0.619,7.935,1.27,8.999-1
			c0.364-3.363-4.333-1.666-5.999-3c1.158-9.49-2.456-14.209-6-18.997c0-7.999,0-15.998,0-23.997
			c-8.012-5.653-10.997-16.333-23.997-16.998c2.029-10.361-4.832-11.833-3-21.997c-0.42-2.246-5.305-0.027-5.999-2
			c0.299-9.699,5.19-14.807,8.999-20.997c-0.684-8.35,1.502-13.829,5.999-16.998c4.634-0.635,2.532,5.467,3,8.999
			c7.865-1.532,9.261,3.403,14.998,3.999c0,3.333,0,6.666,0,9.999c2.813,1.521,7.902,0.764,6,6.999c3.128,0.204,7.34-0.674,8.999,1
			c0,5.666,0,11.332,0,16.998c6.498-5.834,16.535-8.129,18.998-17.998c11.776-3.222,20.469-9.526,25.997-18.997
			c0-10.332,0-20.664,0-30.996c-4.186-2.239-3.719-4.433-5.999-8.999c-1.931-3.866-10.131-7.762-11.999-10.999
			c-0.551-0.954,0.642-3.116,0-3.999c-3.363-4.627-8.476-6.578-6-17.998c11.225-5.773,15.895-18.101,31.996-18.998
			c4.855,2.477,2.103,12.562,8.999,12.999c-5.976,3.023-15.394,2.604-16.998,9.998c-0.008,5.675,4.679,6.653,6.999,9.999
			c9.031-1.968,11.063-10.935,16.998-15.998c0.188-4.854-5.837-3.495-6-7.999c4.567-8.098,15.314-10.016,25.997-11.998
			c8.886-9.501,17.546-7.143,32.996-8.999c0.761-3.905,3.127-6.205,5-8.999c15.133,1.469,12.871-14.459,25.997-14.998
			c-2.274-13.939,11.857-11.474,11.999-22.997c10.032-0.967,10.31-11.688,14.999-17.998c-1.4-2.932-9.599,0.933-10.999-2
			c-0.659-4.325,7.005-0.327,7.999-3c3.739-15.071-10.536-12.128-8.999-24.997c-2.537-2.796-5.921-4.744-7.999-7.999
			c6.852-6.48,13.177-13.486,25.997-13.998c0-1.667,0-3.333,0-5c-3.334-2.332-11.992,0.661-12.999-4
			c-3.777,1.889-7.222,4.11-10.999,6c-3.124,0.458-3.196-2.136-3-5c-3.254-1.745-8.691-1.308-7.999-6.999
			c16.848,1.516,18.22-12.443,33.996-11.999c-1.71,5.622-5.961,8.703-7.999,13.998c7.912,0.167,16.833-12.395,29.997-6.999
			c0.904,4.903-0.779,7.22-3,8.999c0.634,5.699,7.44,5.225,13.999,4.999c-2.1,8.522-0.851,12.243-2,23.997
			c10.745-0.254,17.558-4.44,26.997-5.999c1.796-16.461-4.876-24.454-14.998-28.997c1.75-6.581,10.808-5.856,14.998-9.999
			c-0.162-9.828,9.003-10.328,13.998-14.998c19.295,10.862,29.148-9.813,41.994-14.999c1.581-5.752,5.144-9.521,9.999-11.998
			c0-6.666,0-13.332,0-19.998c10.685,2.647,7.483,19.181,14.999,24.997c-1.185,7.478-0.637,11.527,2.999,15.998
			c-0.88,6.453-9.642,5.024-11.999,9.999c6.428,6.35,8.016,21.614,3,30.996c-3.78,1.447-1.918-2.748-5-2
			c-3.731,2.222,2.537,2.68,1,6c-9.697-1.366-11.027,5.637-18.997,5.999c-2.168-0.168-0.453,3.546-1,5
			c-7.929-4.345-13.859,3.676-25.997,1c-6.789,6.542-15.418,11.245-24.996,14.998c-0.847,8.512,5.728,9.604,5.999,16.998
			c2.488,1.178,5.683,1.65,6.999,4c6.893-0.44,3.434-11.231,7.999-13.998c0.722-5.721-5.722-4.278-4.999-9.999
			c2.332,0,4.666,0,6.999,0c2.045,1.621-0.046,7.378,1.999,8.999c6.227-0.107,7.756-4.91,15.998-3c2.934-1.4-0.933-9.599,2-10.999
			c3.494,3.171,4.793,8.539,8.999,10.999c3.788-2.544,8.118-4.547,7.999-10.999c8.346,1.826,17.959,3.678,20.998-3
			c3.189-0.857,3.092,1.574,4.998,2c2.63,0.296,0.787-3.879,4-3c-1.766-14.097,1.994-22.67,6-30.996
			c-3.455-5.878-10.318-8.346-10.999-16.998c5.312-0.312,10.421-0.421,11.999,3c4.938-1.728,5.122-8.208,13.998-5.999
			c0.547-1.453-1.169-5.168,1-5c-2.818-4.515-10.445-4.221-17.998-4c-0.753-5.913-9.236-4.096-9.999-9.999
			c0.856-2.81,5.407-1.925,8.999-2c0.327-5.66-5.191-5.474-8.999-6.999c0-2.333,0-4.666,0-6.999c0.694-1.973,5.579,0.246,5.999-2
			c0-1.333,0-2.666,0-4c-11.686-1.979-10.068-17.262-18.998-21.997c-3.982-0.316-2.707,4.625-5.998,5
			c-6.718-3.773-14.229-7.031-21.998-2c-1.068-3.735,2.482-2.85,2-5.999c-4.668-1.935-6.391,4.185-8.999,1
			c-1.173-5.258,6.33-4.343,10.999-6.999c5.533-3.148,14.936-15.418,22.996-5.999c17.283-1.951,27.968,2.696,42.995,3
			C680.511,80.875,677.558,74.256,679.959,72.991z M515.979,416.948c-5.521,5.128,1.446,9.863,1,15.998
			c2.465,0.132,4.817,0.151,5.999-1c1.223-4.557-2.743-3.923-2-7.999c1.667,0,3.333,0,4.999,0c0-4,0-7.999,0-11.999
			c-2.181,0.182-3.181-0.818-3-2.999c-3.666,0-7.333,0-10.999,0c-0.687-5.313-5.319-6.68-4-13.999
			c-4.112-0.887-8.333-1.666-10.999-3.999c-0.913,3.268-10.673,5.298-9.999-1c0.199-3.135,6.541-0.125,6-3.999
			c-0.904-2.096-5.644-0.356-6-3c0-2,0-3.999,0-5.999c3.891-0.442,6.037-2.629,8.999-4c0-6.999,0-13.998,0-20.997
			c-7.707,2.041-7.716-3.616-13.998-3c-2.486,1.847-3.348,5.318-7,6c0,5.665,0,11.331,0,16.997c-1.182,1.151-3.534,1.132-5.999,1
			c-1.825,8.824,2.557,11.441,3,17.998c1.453,0.547,5.168-1.168,5,1c0.745,3.078-2.745,1.922-2,4.999c1.89,0.443,6.026-1.359,5,2
			c-0.256,2.076-4.393,0.273-5,2c1.323,6.01,2.885,11.78,7.999,13.998c2.183-1.816,4.363-3.637,4-7.999c-0.406-1.927-3.876-0.79-3-4
			c0.345-2.987,2.685-3.98,5-4.999c1.235,3.235-3.235,0.765-2,4c4.465,2.67,11.193,0.195,14.999-1c2.133,6.504,1.028,7.007,0,13.998
			c5.826-1.827,4.156,3.843,8.999,2.999c2.641-5.913-5.83-6.987-1-8.998C510.649,412.946,515.58,412.681,515.979,416.948z
			 M474.984,303.962c-1.312,8.978,3.138,12.194,7.999,14.998c6.523-7.809,10.516-18.147,12.999-29.996
			C481.146,286.126,483.642,300.621,474.984,303.962z M508.98,423.947c-2.251,0.415,0.149,5.482-3,4.999
			c-5.574-3.424-3.858-14.14-15.998-10.999c1.727,6.727-2.534,7.465-3,11.999c3.367,0.633,9.288-1.288,10.999,1
			c0.291,4.29-4.711,3.287-4.999,6.999c-0.468,4.468,2.493,5.506,4.999,6.999c6.773-1.56,8.137-8.527,18.998-5.999
			c0.869-3.869-2.442-3.558-3-5.999c-3.735-1.069-2.85,2.482-5.999,1.999C510.847,433.033,513.978,425.347,508.98,423.947z
			 M522.979,443.944c-1.182,1.151-3.534,1.132-5.999,1c0,1.667,0,3.333,0,4.999c-3.41,0.59-5.254,2.746-8.999,3
			c0-1.666,0-3.333,0-4.999c-8.113,1.88-24.089,9.65-15.998,17.997c2.251-0.415-0.15-5.482,3-4.999c3.129,4.118,7.107,0.689,9.999-1
			c2.891,0.441,4.558,2.108,4.999,4.999c-0.888,1.778-2.791,2.542-2,6c4.836,4.495,9.01,9.654,17.998,9.998
			c1.107-4.225-2.354-13.02,2-13.998c2.168-0.168,0.453,3.547,1,5c6.554-0.112,5.658-7.675,8.999-10.999
			c-4.255-1.744-2.833-9.165-2.999-14.998c-1.951-2.382-5.943-2.723-5-7.999c-4.146,1.146-3.896-2.104-6.999-2
			C522.979,438.611,522.979,441.278,522.979,443.944z M136.027,483.939c20.729,3.52,11.674-32.153,4-35.995
			C138.975,460.225,134.374,468.955,136.027,483.939z M432.99,465.941c0.824,8.156-7.232,7.433-6.999,14.998c-1.667,0-3.333,0-5,0
			c0.132,2.465,0.151,4.818-1,6c-16.575,0.471-15.614,17.816-28.996,20.997c-3.72,6.945-13.004,8.327-16.998,14.998
			c-6.952,1.952-5.699-4.3-11.999-3c-2.486,1.847-3.348,5.318-6.999,6c-1.479,12.477,4.907,17.09,6,26.996
			c2.651,0.016,5.887-0.555,5.999,2c-2.014,8.346,3.241,9.425,3,15.998c4.666,0,9.333,0,13.999,0c1.151,1.182,1.132,3.534,1,5.999
			c8.068-4.85,25.979-8.078,26.997,5.999c7.631-1.132,11.657-5.105,17.998,0c-2.025-12.689,4.946-16.384,3-28.996
			c3.53-0.803,3.175-5.49,8.999-3.999c0.431-3.236-1.316-8.648,2-8.999c5.52-0.188,4.289,6.376,9.999,5.999
			c2.094-9.093-6.8-7.198-8.999-11.998c-0.299-5.299,7.854-2.146,11.999-3c1.842-8.508-5.667-7.665-8.999-10.999
			c1.991-8.656-2.891-10.44-4.999-14.998c2.964-1.368,1.109-7.556,3-9.998c2.666,0,5.333,0,7.999,0
			c-1.696-7.362,5.424-5.908,5.999-10.999c-3.772-3.227-5.488-8.511-13.998-6.999c-0.596-5.737-5.532-7.133-4-14.998
			C437.146,462.1,438.816,467.769,432.99,465.941z M253.012,506.937c3.93,18.067,23.493,20.502,23.997,41.995
			c3.035,3.964,6.463,7.535,6,14.998c2.865,3.468,5.677,6.988,5.999,12.998c2.465-0.132,4.817-0.151,5.999,1
			c0.519,12.146,15.175,10.155,17.998,19.997c7.272-1.272,10.666,1.333,14.998,3c5.923-9.602-4.447-19.887,4-28.996
			c3.078-0.745,1.921,2.744,5,2c3.339-7.949-9.222-7.004-6-17.998c-5.185-1.186-6.164,1.835-8.999,2.999
			c-0.483,3.149,3.069,2.265,2,6c-9.293-2.039-6.841-15.822-16.998-16.998c-0.809-4.809,4.388-3.612,3-8.999
			c-2.176-7.489-10.828-8.503-12.999-15.998c-9.591-4.074-21.343-5.987-22.997-17.998c-11.38-0.618-11.69-12.306-17.998-17.997
			c-6.14,0.475-11.48,0.148-13.998-3c-1.333,0-2.667,0-4,0C238.445,496.174,245.312,501.972,253.012,506.937z M543.976,561.93
			c5.271,0.605,8.097-1.235,8.999-4.999c-1.599-3.068-5.873-3.459-5.999-7.999c6.568-1.099,5.012-10.32,14.998-7.999
			c0.901-5.9-5.739-4.26-5.999-8.999c-0.872-3.872,4.365-1.634,2.999-5.999c-0.239-1.427-1.646-1.687-2-3
			c-3.987-0.988-3.01,2.988-6.998,2c-0.227-4.177,1.625-4.723,0-7.999c-1,0-2,0-3,0C542.257,533.1,541.567,544.463,543.976,561.93z
			 M464.986,537.933c-1.667,0-3.333,0-5,0c0.041,3.04,0.582,6.581-3,5.999c3.36,11.537-0.865,19.415-3,32.996
			c3.128,0.204,7.34-0.674,8.999,1c1.833,9.5-2.549,12.782-3,19.997c4,0,7.999,0,11.999,0c1.68-9.318-3.554-25.552,3-29.996
			c5.008,3.325,2.352,14.313,7.999,16.998c-0.09,1.576-2.55,0.783-2,3c1.581,2.752,5.11,3.555,5.999,6.999
			c3.149,0.483,2.264-3.069,6-2c0,1.667,0,3.333,0,4.999c2,0,4,0,5.999,0c-1.305-5.971,1.532-7.8,3-10.998
			c-8.052-4.613-9.882-15.449-13.999-23.997c3.223-2.443,4.68-6.651,6.999-9.999c0.117,1.967,6.628,5.653,7,1
			c0.174-2.841-6.542,1.209-5-3c5.212-0.12,5.122-5.542,5.999-9.998c8.137,1.471,5.634-7.698,13.999-5.999c0-3,0-6,0-8.999
			C500.306,537.048,468.954,515.04,464.986,537.933z M570.973,561.93c2.999,0,5.999,0,8.999,0c-0.945-6.054-8.258-5.74-6-14.998
			c-1,0-1.999,0-2.999,0C568.591,551.602,571.88,555.786,570.973,561.93z M591.97,570.929c7.002-0.003,10.013,3.985,8.999,11.998
			c9.224-3.892,16.328-2.609,22.997,3c19.865,2.133,34.681,9.314,36.996,28.996c-6.412,0.921-10.545,4.12-9,12.999
			c15.754-2.929,26.82-3.607,32.996,8.998c10.074,1.076,17.154-0.844,23.997-2.999c-1.758-6.425,4.579-4.753,3-10.999
			c7.79-5.446,16.078,0.386,23.997,3c1.841,8.824,8.316,13.014,11.998,19.997c5.666,0,11.332,0,16.998,0
			c2.137,3.196,3.649,7.017,9.999,6c-1.943-10.39-9.237-15.427-17.998-18.998c1.58-6.246-4.758-4.574-2.999-10.999
			c-2.466,0.132-4.818,0.151-6-0.999c1.827-5.826-3.843-4.157-2.999-8.999c0.111-2.555,3.348-1.985,5.999-2
			c0.211-10.543-10.187-10.478-17.998-12.998c0-2.667,0-5.333,0-7.999c-7.36-4.639-16.223-7.774-20.997-14.998
			c-13.042,0.376-20.764-4.567-28.997-8.999c-15.208,1.21-21.512-6.484-29.996-11.999c-6.81,8.188-17.459,12.537-23.996,20.998
			c-2.829-0.172-6.859,0.859-7-2c0-2.333,0-4.666,0-6.999c-1.453-0.547-5.168,1.168-4.999-1c-0.745-3.078,2.745-1.922,2-5
			c-4.782-1.217-2.146-9.852-5.999-11.998c-14.191-0.652-27.834,1.1-35.996,1c-2.343,11.008,12.538,4.793,14.998,10.998
			c0.384,3.384-4.426,1.574-3,6c6.93,1.625,12.805-2.109,14.998-2C603.179,568.806,593.534,565.827,591.97,570.929z M552.975,563.93
			c3.478,2.759,9.009-0.952,8.999-5C558.2,559.822,555.025,561.313,552.975,563.93z M549.976,572.929
			c4.182,2.229-0.126,3.356,0,6.999c7.29,1.957,6.027-4.639,10.998-5c6.41,2.358,12.479-0.337,18.998,5
			C583.879,568.582,555.452,562.476,549.976,572.929z M531.978,579.928c6.146,0.479,11.282-0.05,11.998-5
			C541.439,568.359,529.748,570.529,531.978,579.928z M347,603.925c-12.785,0.334-17.392-5.905-21.997,4.999
			c8.592,5.62,23.004,16.152,33.996,9.999c2.629-0.297,0.787,3.879,4,2.999c9.26-0.261,14.875,3.123,20.998,6
			c9.273,0.726,22.162-2.165,26.997,2.999c3.598-6.109,5.773,0.559,11.999,0c1.151-1.182,1.132-3.534,1-5.999
			c-6.725,0.726-10.554-1.444-11.998-5.999c-4.226-1.107-13.02,2.354-13.999-2c3.974-2.026,11.543-0.455,10.999-6.999
			c-6.589-0.59-11.973,0.025-14.998,3c-6.373-2.627-11.76-6.238-20.997-6c-0.547,1.453,1.168,5.168-1,5
			C363.759,609.164,352.124,609.8,347,603.925z M528.978,620.923c0.753,1.329,9.773,2.508,8.999-1
			C537.224,618.593,528.203,617.415,528.978,620.923z M433.99,624.922c-5.353-0.02-7.154,3.512-6.999,8.999
			c10.486-1.502,21.249,0.807,32.996-3C457.355,616.415,439.494,633.582,433.99,624.922z M465.986,630.921
			c9.074-1.075,10.799,5.199,20.997,3c0-2,0-4,0-5.999C478.632,628.68,468.117,619.311,465.986,630.921z M510.98,626.922
			c0.753,1.329,9.773,2.508,8.999-1C519.226,624.592,510.206,623.414,510.98,626.922z M523.979,627.922
			c-3.737,9.595-21.923,4.739-18.998,20.997c4.534-0.466,5.272-4.727,11.999-3c4.24-9.757,16.837-11.159,24.996-16.998
			C540.395,620.275,532.899,631.569,523.979,627.922z M770.947,637.92c4.858,0.809,5.443,5.889,8.999,7.999
			c1.322-0.011,0.914-1.752,2-1.999c-2.238-4.428-4.296-9.036-9.999-9.999C772.172,635.812,770.82,636.127,770.947,637.92z
			 M459.986,642.92c8.759-1.761,9.005,4.992,17.998,2.999c0.658-5.657-5.828-4.171-6-8.999c-4,0-7.999,0-11.999,0
			C459.986,638.92,459.986,640.92,459.986,642.92z M627.966,876.891c5.654-0.012,4.604-6.729,10.998-5.999
			c0.42,4.086-3.291,4.041-2,8.998c5.729-1.062,6.496,2.837,9,5c0,3.333-0.001,6.665,0,9.998c2.181-0.181,3.18,0.819,2.999,3
			c11.603-0.937,16.088,5.242,28.996,3c2.338-1.662,2.417-5.583,6.999-5c0,1.667,0,3.333,0,5c5,0,9.999,0,14.998,0
			c2.012-8.987,17.322-4.676,23.997-8.999c0-2.667,0-5.333,0-7.999c3.288-0.046,2.393-4.274,6-4
			c0.473-8.525,7.185-10.813,11.998-14.998c0.671-7.328,4.671-11.327,11.999-11.998c-0.69-5.689,2.564-7.434,5.999-8.999
			c2.411-8.587,5.072-16.925,11.998-20.997c-1.521-13.521,1.707-22.291,3-32.996c-5.86-7.138-14.432-11.565-14.998-23.997
			c-2.502-2.164-6.771-2.562-8.999-4.999c1.528-7.861-5.047-7.618-3-15.998c-7.532-4.133-15.051-8.28-20.997-13.999
			c2.847-18.178-9.263-21.399-5.999-39.994c-3.85-3.817-13.135-2.197-14.998-7.999c0.846-13.179-4.308-20.356-6-30.996
			c-1.999,0-3.999,0-5.999,0c1.014,5.68-0.948,8.383-2.999,10.998c0.26,9.26-3.123,14.875-6,20.997
			c2.045,15.71-2.631,24.699-6.999,33.996c-5.346-1.68-4.335,2.997-7.999,3c-2.656-3.343-10.698-1.301-8.998-8.999
			c-2.667,0-5.333,0-8,0c-6.316-9.349-21.003-10.326-26.996-19.998c5.536-6.128,7.17-16.16,13.998-20.997
			c1.115-4.448-2.645-4.021-3-6.999c-14.121,5.136-29.454-4.687-44.994-8.999c-1.109,5.442,5.472,3.194,5,7.999
			c-3.639,6.36-16.757,3.241-22.998,6.999c0,2.667,0,5.333,0,7.999c-1.182,1.151-3.533,1.132-5.998,1
			c-0.451,6.905-5.032,8.506-1,14.998c-7.803,1.703-7.698-5.481-12.999-1c-4.609-3.056-6.916-8.415-11.999-10.998
			c-12.297,3.033-19.546,11.115-27.996,17.997c-0.483,3.149,3.069,2.265,2,6c-2.667,0-5.333,0-7.999,0
			c-0.633,3.366,1.288,9.287-1,10.998c-3.703-0.63-5.575-3.09-4.999-7.999c-5.658-0.657-4.171,5.828-8.999,5.999
			c0,3.667,0,7.333,0,10.999c-7.077,6.509-13.627,22.224-26.997,15.998c-3.978,4.354-12.038,4.627-16.998,7.999
			c-1.778-0.889-2.542-2.791-5.999-2c-7.58,5.086-14.876,10.454-20.998,16.998c-2.841,0.175,1.208-6.541-3-4.999
			c-4.086,4.04,2.403,19.046-4,22.997c3.379,6.619,9.681,10.316,10.999,18.997c-1.667,0-3.333,0-5,0
			c4.124,14.874,16.973,21.023,17.998,38.995c8.725,3.657,11.036,16.832,5.999,25.997c5.23,6.768,16.119,7.878,28.997,6.999
			c6.321-4.124,18.281-13.68,26.997-5.999c4.333,0,8.666,0,12.998,0c7.109-10.556,18.691-16.638,37.996-14.998
			c5.04-3.188,15.679-9.119,20.996-3c5.29,1.623,3.131-4.202,8-2.999c5.857,3.474,12.158,6.506,21.997,5.999
			c0.353,9.979,12.156,8.508,9.999,20.997c11.051-1.022,15.856-13.371,23.996-13.998c-1.661,2.005-2.685,4.647-5.999,4.999
			C632.604,871.529,628.188,872.113,627.966,876.891z M858.937,896.888c0.086,2.58,4.28,1.052,3,5c-1.416,3.25-6.653,2.679-6,7.999
			c7.362-4.97,16.962-7.702,18.998-17.998c7.839-0.826,10.979-6.352,13.998-11.999c-4.677-1.011-3.322,4.011-7.999,3
			c-0.795-2.871-2.024-5.308-2.999-7.999c4.181-2.953,2.676-8.208,1.999-12.998c-0.999,0-1.999,0-2.999,0
			C878.461,877.972,867.487,887.811,858.937,896.888z M621.966,881.89c0.754,1.33,9.773,2.508,8.999-1
			C630.212,879.561,621.191,878.382,621.966,881.89z M811.942,927.884c-6.839,4.16-12.457,9.541-18.998,13.998
			c10.266,9.318,16.88-2.905,26.997-4.999c-0.48-7.479,4.516-9.482,11.999-8.999c4.197-9.8,17.876-10.12,20.997-20.997
			C832.472,907.086,831.801,927.079,811.942,927.884z M675.96,929.884c7.785,8.785,26.438,0.095,23.996-13.998
			c-6.122-1.124-8.897,1.101-11.998,2.999c-3.102-1.898-5.875-4.123-11.998-2.999C674.345,923.045,680.133,925.831,675.96,929.884z"
			/>
		<path fill-rule="evenodd" clip-rule="evenodd" d="M530.978,38.995c164.851-7.85,289.96,58.213,373.953,136.983
			c84.418,79.168,154.608,194.163,161.979,348.957c4.055,85.128-12.819,156.964-37.995,217.973
			c-25.082,60.783-58.126,112.759-98.987,155.98c-82.319,87.075-192.46,153.479-349.956,160.979
			c-164.12,7.815-288.865-57.858-372.954-135.982C118.496,841.642,53.365,731.59,45.038,574.928
			c-8.873-166.94,57.312-288.656,134.983-373.953c58.507-64.251,139.855-117.257,238.97-144.981
			C452.871,46.516,494.259,40.744,530.978,38.995z M677.959,81.99c-15.027-0.304-25.712-4.951-42.995-3
			c-8.061-9.419-17.463,2.851-22.996,5.999c-4.669,2.656-12.172,1.741-10.999,6.999c2.608,3.185,4.331-2.935,8.999-1
			c0.482,3.149-3.068,2.264-2,5.999c7.77-5.031,15.28-1.773,21.998,2c3.291-0.375,2.016-5.316,5.998-5
			c8.93,4.735,7.313,20.018,18.998,21.997c0,1.333,0,2.667,0,4c-0.42,2.246-5.305,0.027-5.999,2c0,2.333,0,4.666,0,6.999
			c3.808,1.525,9.326,1.339,8.999,6.999c-3.592,0.075-8.143-0.81-8.999,2c0.763,5.903,9.246,4.085,9.999,9.999
			c7.553-0.221,15.18-0.516,17.998,4c-2.169-0.168-0.453,3.546-1,5c-8.876-2.209-9.061,4.271-13.998,5.999
			c-1.578-3.421-6.688-3.311-11.999-3c0.681,8.652,7.544,11.12,10.999,16.998c-4.006,8.326-7.766,16.899-6,30.996
			c-3.213-0.879-1.37,3.296-4,3c-1.906-0.426-1.809-2.857-4.998-2c-3.039,6.678-12.652,4.826-20.998,3
			c0.119,6.451-4.211,8.454-7.999,10.999c-4.206-2.459-5.505-7.827-8.999-10.999c-2.933,1.4,0.934,9.598-2,10.999
			c-8.242-1.911-9.771,2.893-15.998,3c-2.045-1.621,0.046-7.378-1.999-8.999c-2.333,0-4.667,0-6.999,0
			c-0.723,5.721,5.721,4.278,4.999,9.999c-4.565,2.767-1.106,13.558-7.999,13.998c-1.316-2.35-4.511-2.821-6.999-4
			c-0.271-7.394-6.846-8.486-5.999-16.998c9.578-3.753,18.207-8.456,24.996-14.998c12.138,2.676,18.068-5.345,25.997-1
			c0.547-1.453-1.168-5.168,1-5c7.97-0.362,9.3-7.365,18.997-5.999c1.537-3.319-4.731-3.778-1-6c3.082-0.748,1.22,3.447,5,2
			c5.016-9.382,3.428-24.646-3-30.996c2.357-4.975,11.119-3.546,11.999-9.999c-3.636-4.471-4.184-8.521-2.999-15.998
			c-7.516-5.816-4.314-22.35-14.999-24.997c0,6.666,0,13.332,0,19.998c-4.855,2.477-8.418,6.246-9.999,11.998
			c-12.846,5.186-22.699,25.86-41.994,14.999c-4.995,4.67-14.16,5.17-13.998,14.998c-4.19,4.142-13.248,3.417-14.998,9.999
			c10.122,4.542,16.794,12.536,14.998,28.997c-9.439,1.559-16.252,5.745-26.997,5.999c1.149-11.754-0.1-15.475,2-23.997
			c-6.559,0.226-13.364,0.7-13.999-4.999c2.221-1.779,3.904-4.096,3-8.999c-13.164-5.396-22.084,7.166-29.997,6.999
			c2.038-5.295,6.289-8.376,7.999-13.998c-15.775-0.444-17.148,13.515-33.996,11.999c-0.692,5.691,4.745,5.254,7.999,6.999
			c-0.197,2.863-0.125,5.457,3,5c3.777-1.889,7.222-4.11,10.999-6c1.006,4.66,9.664,1.668,12.999,4c0,1.667,0,3.333,0,5
			c-12.82,0.512-19.145,7.518-25.997,13.998c2.078,3.255,5.462,5.203,7.999,7.999c-1.538,12.869,12.738,9.926,8.999,24.997
			c-0.994,2.672-8.658-1.326-7.999,3c1.4,2.933,9.599-0.933,10.999,2c-4.689,6.31-4.967,17.031-14.999,17.998
			c-0.142,11.523-14.272,9.058-11.999,22.997c-13.125,0.539-10.863,16.467-25.997,14.998c-1.872,2.794-4.239,5.094-5,8.999
			c-15.45,1.856-24.11-0.502-32.996,8.999c-10.683,1.982-21.43,3.9-25.997,11.998c0.163,4.504,6.187,3.146,6,7.999
			c-5.936,5.063-7.967,14.03-16.998,15.998c-2.32-3.346-7.007-4.324-6.999-9.999c1.604-7.394,11.022-6.975,16.998-9.998
			c-6.896-0.437-4.144-10.521-8.999-12.999c-16.102,0.896-20.771,13.224-31.996,18.998c-2.477,11.42,2.636,13.371,6,17.998
			c0.642,0.883-0.551,3.045,0,3.999c1.868,3.237,10.068,7.133,11.999,10.999c2.28,4.566,1.813,6.76,5.999,8.999
			c0,10.332,0,20.664,0,30.996c-5.527,9.471-14.221,15.775-25.997,18.997c-2.463,9.869-12.5,12.164-18.998,17.998
			c0-5.666,0-11.332,0-16.998c-1.659-1.674-5.871-0.796-8.999-1c1.903-6.235-3.187-5.479-6-6.999c0-3.333,0-6.666,0-9.999
			c-5.737-0.596-7.133-5.531-14.998-3.999c-0.467-3.532,1.634-9.634-3-8.999c-4.497,3.169-6.683,8.648-5.999,16.998
			c-3.809,6.19-8.7,11.298-8.999,20.997c0.694,1.973,5.579-0.246,5.999,2c-1.832,10.164,5.029,11.636,3,21.997
			c13,0.665,15.985,11.345,23.997,16.998c0,7.999,0,15.998,0,23.997c3.544,4.788,7.158,9.507,6,18.997
			c1.667,1.334,6.363-0.363,5.999,3c-1.063,2.27-6.285,0.381-8.999,1c-4.47-13.194-24.104-11.225-23.997-28.996
			c-2.368-1.632-5.449-2.551-6-6c3.333-3.238-2.007-12.67,0-20.997c-5.149-2.85-7.846-8.151-8.999-14.998
			c-0.694-1.973-5.579,0.246-6-2c-2.162-14.747,8.907-28.005,3-36.995c8.495-13.319-3.838-29.558,0-47.994
			c-9.094,1.579-12.691,13.962-23.997,9.999c0.934-8.979,6.981-23.449,0-30.996c-0.989-3.988,2.988-3.011,2-6.999
			c-8.787-0.545-8.037-10.627-7.999-19.998c-8.309,4.023-15.26,9.403-28.997,7.999c-0.591,2.076-1.924,3.409-3.999,4
			c0,2.666,0,5.332,0,7.999c-5.057,0.608-3.956,7.376-10.999,5.999c-6.879,11.451-20.865,15.797-24.997,29.996
			c-3.664,0.003-2.653,4.68-7.999,3c0.082,6.748-6.884,6.447-9.999,9.998c3.43,21.761-8.516,28.146-8.999,45.995
			c-8.684,5.647-7.41,21.253-17.998,24.996c-6.318-23.345-1.492-57.834-3-85.989c0.407-1.926,3.876-0.789,3-3.999
			c-1.306-11.971,4.308-17.023,6-25.997c-4.086-0.42-4.042,3.291-8.999,2c-1.736-9.068,2.017-12.648,5-16.998
			c-3.613-3.052-1.399-11.933-2-17.998c-4.056,0.276-5.486,3.18-10.999,2c-32.915,61.899-52.924,127.509-56.993,214.974
			c-4.428,95.171,20.35,174.65,52.993,239.97c48.611,97.27,126.667,174.844,222.972,222.972
			c49.285,24.631,110.714,46.809,172.979,50.994c108.867,7.318,197.73-12.396,274.965-50.994
			c98.13-49.04,174.352-125.68,222.973-222.972c25.042-50.11,46.771-110.225,50.993-172.979
			c6.514-96.813-8.631-177.617-37.995-246.969C971.135,248.189,898.6,168.113,799.944,113.986
			c-17.219-9.447-48.949-29.404-68.992-28.997c-1.771-0.895-1.273-4.058-4.999-3c-6.782,2.899-5.732,2.029-12.998,0
			c1.092,8.907,13.342,6.656,16.998,12.999c2.479,11.144-8.66,8.671-6,19.997c-4.073,0.926-4.131,5.868-8.999,6
			c4.254-15.865-22.478-16.403-20.997-35.996c7.152,1.486,6.398-4.933,7.999-8.999c-5.289-1.623-3.13,4.203-7.999,3
			c-0.559-2.774-3.44-3.225-3.999-6c-3.333,0-6.666,0-9.999,0C677.558,74.256,680.511,80.875,677.959,81.99z"/>
		<path fill-rule="evenodd" clip-rule="evenodd" d="M516.979,525.935c0,2.999,0,5.999,0,8.999c-8.365-1.699-5.861,7.47-13.999,5.999
			c-0.877,4.456-0.787,9.878-5.999,9.998c-1.542,4.209,5.174,0.159,5,3c-0.372,4.653-6.883,0.967-7-1
			c-2.319,3.348-3.776,7.556-6.999,9.999c4.117,8.548,5.946,19.384,13.999,23.997c-1.468,3.198-4.305,5.027-3,10.998
			c-2,0-4,0-5.999,0c0-1.666,0-3.332,0-4.999c-3.735-1.069-2.85,2.483-6,2c-0.889-3.444-4.418-4.247-5.999-6.999
			c-0.55-2.217,1.909-1.424,2-3c-5.647-2.685-2.991-13.673-7.999-16.998c-6.554,4.444-1.32,20.678-3,29.996c-4,0-7.999,0-11.999,0
			c0.451-7.215,4.833-10.497,3-19.997c-1.659-1.674-5.871-0.796-8.999-1c2.135-13.581,6.36-21.459,3-32.996
			c3.581,0.582,3.04-2.959,3-5.999c1.667,0,3.333,0,5,0C468.954,515.04,500.306,537.048,516.979,525.935z M492.982,546.932
			c4.956-1.71,6.598-6.734,7.999-11.998c-7.333,0-14.665,0-21.998,0C483.817,538.766,490.402,540.847,492.982,546.932z
			 M468.985,541.933c0,1.333,0,2.666,0,3.999c3.95,1.271,15.584,2.506,17.998-1C486.967,538.401,473.311,540.898,468.985,541.933z"
			/>
		<path fill-rule="evenodd" clip-rule="evenodd" d="M546.976,516.936c1,0,2,0,3,0c1.625,3.276-0.227,3.822,0,7.999
			c3.988,0.988,3.011-2.988,6.998-2c0.354,1.313,1.761,1.573,2,3c1.366,4.365-3.871,2.127-2.999,5.999
			c0.26,4.739,6.9,3.099,5.999,8.999c-9.986-2.321-8.43,6.9-14.998,7.999c0.126,4.54,4.4,4.931,5.999,7.999
			c-0.902,3.764-3.728,5.604-8.999,4.999C541.567,544.463,542.257,533.1,546.976,516.936z"/>
	</g>
</g>
</svg>
